<svg xmlns="http://www.w3.org/2000/svg" width="36" height="32" viewBox="0 0 36 32" style="--eq-body-width: 1152;">
  <path fill="#fff" d="M16.941 29.176c0 1.559-1.264 2.824-2.824 2.824s-2.824-1.264-2.824-2.824c0-1.559 1.264-2.824 2.824-2.824s2.824 1.264 2.824 2.824z"/>
  <path fill="#fff" d="M32 29.176c0 1.559-1.264 2.824-2.824 2.824s-2.824-1.264-2.824-2.824c0-1.559 1.264-2.824 2.824-2.824s2.824 1.264 2.824 2.824z"/>
  <path fill="#fff" d="M12.773 24.471h18.417l4.575-13.983h-25.19l-2.258-9.613c-0.133-0.507-0.595-0.864-1.129-0.874h-6c-0.656 0-1.188 0.522-1.188 1.165s0.532 1.165 1.188 1.165h4.99l5.347 22.14h1.248z"/>
</svg>