<svg xmlns="http://www.w3.org/2000/svg" xmlns:xlink="http://www.w3.org/1999/xlink" width="257px" height="49px" viewBox="0 0 257 49" version="1.1" style="--eq-body-width: 1152;">
    <g stroke="none" stroke-width="1" fill="none" fill-rule="evenodd">
        <g>
            <path d="M67.4419,33.9174 C69.6599,33.9174 71.0479,33.7414 72.0969,32.4674 C73.3789,30.9014 73.5989,28.8564 73.5989,24.9684 L73.5989,23.2594 C73.5989,19.2934 73.5219,16.9794 72.5849,15.2254 C71.5399,13.2864 70.0319,13.0244 67.4419,13.0244 L64.3649,13.0244 L64.3649,33.9174 L67.4419,33.9174 Z M58.1699,33.9174 L58.1699,13.0244 L55.2039,13.0244 L55.2039,11.8794 L67.7049,11.8794 C70.9699,11.8794 73.4869,12.4204 75.7759,14.0684 C78.7459,16.1904 80.5829,19.4074 80.5829,23.5514 C80.5829,27.6934 78.7099,30.8234 75.6669,32.9904 C73.5989,34.4484 70.9699,35.0704 67.5559,35.0704 L55.2039,35.0704 L55.2039,33.9174 L58.1699,33.9174 Z" fill="#FFFFFF"/>
            <path d="M91.1763,27.6169 C88.2523,27.6169 87.0853,28.3219 87.0853,30.4509 C87.0853,32.5049 87.6533,33.3979 89.1523,33.3979 C90.5753,33.3979 91.6283,32.3949 91.6283,30.7529 L91.6283,27.6169 L91.1763,27.6169 Z M86.1063,35.4549 C83.5533,35.4549 82.1673,34.1119 82.1673,31.7969 C82.1673,28.7719 85.5463,26.6089 91.6283,26.6089 L91.6283,23.0609 C91.6283,21.5299 91.1763,21.0399 89.1083,21.0399 C87.8373,21.0399 87.2013,21.3389 87.2013,21.8999 C87.2013,22.2709 87.8773,22.7929 87.8773,23.8429 C87.8773,25.2579 86.9733,26.0429 85.3563,26.0429 C83.9313,26.0429 83.1443,25.2259 83.1443,23.7629 C83.1443,21.4579 85.5853,20.0699 90.0863,20.0699 C92.1933,20.0699 93.7713,20.4039 94.7073,20.8899 C96.1713,21.6399 96.2483,22.5709 96.2483,24.2879 L96.2483,31.7649 C96.2483,32.7949 96.6943,33.9609 97.6073,33.9609 C97.6073,33.9609 97.5133,35.4549 95.1943,35.4549 C93.5833,35.4549 92.2693,34.5219 91.7413,32.9129 C90.2423,34.7089 88.5523,35.4549 86.1063,35.4549 L86.1063,35.4549 Z" fill="#FFFFFF"/>
            <path d="M101.0512,33.9174 L101.0512,21.5474 L98.5772,21.5474 L98.5772,20.4114 C101.0152,20.4114 103.5292,20.3344 106.1942,20.1464 L106.1942,23.8454 C107.6182,21.2694 109.4252,20.1084 112.1592,20.1084 C116.0672,20.1084 116.4812,21.9024 116.4812,25.4094 L116.4812,33.9174 L118.6582,33.9174 L118.6582,35.0704 L109.4972,35.0704 L109.4972,33.9174 L111.4142,33.9174 L111.4142,23.6574 C111.4142,22.3114 110.9602,21.6734 109.8682,21.6734 C108.1472,21.6734 106.2292,24.1054 106.2292,26.9774 L106.2292,33.9174 L108.1062,33.9174 L108.1062,35.0704 L98.7992,35.0704 L98.7992,33.9174 L101.0512,33.9174 Z" fill="#FFFFFF"/>
            <path d="M121.7791,33.9174 L123.2631,33.9174 C124.2031,33.9174 124.7321,33.2334 124.7321,32.0744 L124.7321,13.0114 L121.7791,13.0114 L121.7791,11.8794 L132.0101,11.8794 L136.2871,24.8004 L140.8321,11.8794 L150.5941,11.8794 L150.5941,13.0114 L147.6671,13.0114 L147.6671,33.9174 L150.5941,33.9174 L150.5941,35.0704 L138.3571,35.0704 L138.3571,33.8704 L141.6621,33.8704 L141.6621,13.3094 L141.5831,13.3094 L134.3731,35.0704 L133.1031,35.0704 L126.0041,13.0824 L126.0041,31.9644 C126.0041,33.3864 126.4571,33.9174 127.7691,33.9174 L129.3831,33.9174 L129.3831,35.0704 L121.7791,35.0704 L121.7791,33.9174 Z" fill="#FFFFFF"/>
            <path d="M170.8003,33.9174 L172.7593,33.9174 L172.7593,21.5474 L170.7323,21.5474 L170.7323,20.4114 C173.0933,20.3374 175.4583,20.2834 177.8253,20.0584 L177.8253,24.0504 C178.8403,21.5134 180.5603,20.1324 182.4043,20.1324 C184.2823,20.1324 185.6703,21.4364 185.6703,23.1564 C185.6703,24.6894 184.5823,25.8444 183.0023,25.8444 C181.6933,25.8444 180.6023,24.7634 180.6023,23.3444 C180.6023,22.6364 181.0533,22.3354 181.0533,21.9644 C181.0533,21.8464 180.9393,21.7364 180.7473,21.7364 C179.8843,21.7364 177.9393,24.3144 177.9393,27.3414 L177.9393,33.9174 L180.6423,33.9174 L180.6423,35.0704 L170.8003,35.0704 L170.8003,33.9174 Z" fill="#FFFFFF"/>
            <path d="M207.8549,33.9174 L207.8549,12.8964 L205.3739,12.8964 L205.3739,11.8794 C208.0449,11.8794 210.5959,11.6624 213.0359,11.4364 L213.0359,23.8674 C214.4589,21.2884 216.2619,20.1324 219.0039,20.1324 C222.5299,20.1324 223.3209,21.6244 223.3209,24.8004 L223.3209,33.9174 L225.4969,33.9174 L225.4969,35.0704 L216.2959,35.0704 L216.2959,33.9174 L218.2539,33.9174 L218.2539,23.6764 C218.2539,22.3354 217.7979,21.7364 216.7159,21.7364 C214.9459,21.7364 213.0359,24.1234 213.0359,27.0024 L213.0359,33.9174 L214.9459,33.9174 L214.9459,35.0704 L205.5989,35.0704 L205.5989,33.9174 L207.8549,33.9174 Z" fill="#FFFFFF"/>
            <path d="M228.217,43.2479 C226.678,43.2479 225.748,42.4239 225.748,40.9679 C225.748,39.7369 226.752,38.7629 228.027,38.7629 C229.644,38.7629 229.791,40.0339 230.393,40.0339 C230.844,40.0339 231.072,39.6599 231.367,38.9509 L233.02,35.1019 L226.115,21.5479 L224.541,21.5479 L224.541,20.4129 L233.513,20.4129 L233.513,21.5479 L231.674,21.5479 L235.347,29.4239 L238.125,23.0459 C238.239,22.8149 238.352,22.5909 238.352,22.2189 C238.352,21.8439 238.016,21.5479 237.337,21.5479 L235.91,21.5479 L235.91,20.4129 L241.771,20.4129 L241.771,21.5479 L240.759,21.5479 C240.155,21.5479 239.779,21.8439 239.438,22.6699 L232.307,39.3629 C231.182,41.9709 229.909,43.2479 228.217,43.2479" fill="#FFFFFF"/>
            <path d="M244.6321,29.6519 L245.6111,29.6519 C246.4751,32.8679 248.3141,34.5059 250.9771,34.5059 C253.1911,34.5059 254.5421,33.2779 254.5421,31.8549 C254.5421,30.1419 252.8561,30.2909 249.8141,29.8359 C246.2841,29.3149 244.5971,28.2309 244.5971,25.2839 C244.5971,22.0339 246.6971,20.0539 249.8861,20.0539 C251.2001,20.0539 252.4451,20.3919 253.4591,20.9119 L254.2431,20.2429 L254.9941,20.2429 L255.1061,24.3899 L254.1291,24.3899 C253.3811,22.1069 251.9521,20.9549 249.9261,20.9549 C247.8201,20.9549 246.5091,21.9219 246.5091,22.9679 C246.5091,24.3139 248.0881,24.3539 251.2381,24.7629 C255.0321,25.2459 256.5751,26.5159 256.5751,29.8799 C256.5751,33.3129 254.4661,35.4729 250.8671,35.4729 C249.1031,35.4729 247.6741,35.0289 246.6251,34.2449 L245.5721,35.0639 L244.6741,35.0639 L244.6321,29.6519 Z" fill="#FFFFFF"/>
            <path d="M169.7389,35.0687 L169.7389,33.9157 L167.9259,33.9157 L167.9259,20.0547 C165.2579,20.2787 162.6689,20.4117 160.0819,20.4117 L160.0819,21.5477 L162.7449,21.5477 L162.7449,28.4597 C162.7449,31.3327 160.8679,33.7987 159.1049,33.7987 C158.0139,33.7987 157.5649,33.1627 157.5649,31.8187 L157.5649,20.0547 C155.3109,20.2777 152.7959,20.3667 150.0609,20.4117 L150.0609,21.5477 L152.4989,21.5477 L152.4989,31.1817 C152.4989,32.4127 152.5679,33.3157 153.1009,34.0257 C153.8439,34.9567 155.1239,35.4417 156.8129,35.4417 C159.5169,35.4417 161.3239,34.2447 162.7809,31.6327 L162.7809,35.3247 C165.1989,35.1517 167.3609,35.0807 169.7389,35.0687" fill="#FFFFFF"/>
            <path d="M243.9778,13.2994 C242.5818,13.1274 241.2548,13.9304 241.1788,15.3914 C241.1158,16.6224 241.9218,17.5114 242.9848,17.5554 C244.3268,17.6014 244.5428,16.4884 244.8418,16.4684 C245.0918,16.4464 245.2428,16.8504 245.1228,17.7164 C244.9878,18.7094 244.1318,19.7024 242.9348,20.4314 L242.9348,21.5494 C245.1958,20.2934 246.3118,18.8204 246.5378,16.9974 C246.7748,15.0544 245.6878,13.5094 243.9778,13.2994" fill="#FFFFFF"/>
            <path d="M199.4378,31.6728 C199.4378,33.5338 199.1798,34.4678 197.5638,34.4678 C195.1238,34.4678 193.4298,32.4898 193.4298,29.2068 L193.4298,26.4048 C193.4298,23.1148 195.1608,21.1418 197.5638,21.1418 C199.2478,21.1418 199.4378,22.0358 199.4378,23.9728 L199.4378,31.6728 Z M198.2398,20.0578 C196.1348,20.0578 194.5588,20.9888 193.4298,22.8558 L193.4298,20.0578 C191.1618,20.2688 188.7148,20.3338 186.1288,20.4118 L186.1288,21.5488 L188.2548,21.5488 L188.2548,42.1238 L186.1518,42.1238 L186.1518,43.2438 L196.1348,43.2438 L196.1348,42.1238 L193.4298,42.1238 L193.4298,32.7568 C194.5588,34.6208 196.1348,35.5108 198.2398,35.5108 C202.1418,35.5108 205.1438,32.1948 205.1438,27.8248 C205.1438,23.3068 202.1808,20.0578 198.2398,20.0578 L198.2398,20.0578 Z" fill="#FFFFFF"/>
            <path d="M45.5715,8.8254 C45.4295,9.6044 45.2575,10.3514 44.3935,10.4084 C44.8555,11.0864 45.4505,11.6274 45.4425,12.7794 C46.2885,12.0794 46.5575,9.5454 45.5715,8.8254" fill="#FFFFFF"/>
            <path d="M47.5501,6.1899 C48.3201,5.6989 47.6911,4.3149 47.4161,3.6849 C47.5011,4.4809 47.2451,5.6169 47.5501,6.1899" fill="#FFFFFF"/>
            <path d="M47.6802,9.8791 C48.0682,9.2521 48.4222,7.6631 47.9452,6.9801 C47.7222,7.3331 47.3852,7.5621 47.1522,7.9041 C47.8042,8.3211 47.2172,9.5121 47.6802,9.8791" fill="#FFFFFF"/>
            <path d="M6.7076,1.6766 C5.8936,2.0556 4.5206,1.2076 4.2116,2.2016 C4.9056,2.1626 6.0886,2.3086 5.9196,2.4646 C6.2706,2.1406 6.5986,2.0896 6.7076,1.6766" fill="#FFFFFF"/>
            <path d="M9.7916,6.7156 C9.2776,7.8246 7.2716,8.1426 7.8176,9.8786 C8.7566,9.0166 9.7146,8.1746 10.1886,6.8466 C10.0196,6.8436 10.0056,6.6806 9.7916,6.7156" fill="#FFFFFF"/>
            <path d="M5.5813,9.4839 C4.9603,8.9719 4.3353,8.7449 3.7483,8.7209 L4.2113,9.4469 L4.9213,9.6459 C4.9233,9.6339 4.9233,9.6269 4.9263,9.6149 C5.1133,9.5459 5.6053,9.7719 5.5813,9.4839" fill="#FFFFFF"/>
            <path d="M3.8721,7.6375 C4.7531,7.2345 7.3821,7.2175 6.7651,6.1895 C5.8551,6.7295 4.5011,6.8195 3.8721,7.6375" fill="#FFFFFF"/>
            <path d="M3.4761,4.2154 C2.8801,4.3204 1.8171,3.9624 1.6331,4.4774 C2.7701,4.6754 5.0331,4.9064 5.3211,3.8174 C3.7371,3.9554 3.4461,2.7954 2.1591,2.6334 C2.1691,3.5914 3.0391,3.6854 3.4761,4.2154" fill="#FFFFFF"/>
            <path d="M23.8967,48.6415 L12.8037,48.6415 C9.9037,44.3725 7.0177,39.1055 7.6847,32.6725 C9.1417,38.1345 15.4667,42.9835 20.3157,46.3755 C21.6037,47.2725 22.7027,48.0345 23.8967,48.6415" fill="#FFFFFF"/>
            <path d="M41.8887,46.5037 C41.5917,47.3067 41.1677,47.9937 40.7157,48.6417 L34.1397,48.6417 C34.2207,48.5947 34.3087,48.5407 34.3897,48.4867 C35.5567,47.7577 36.5007,47.0707 37.2897,46.3757 C39.2177,44.6697 40.3647,42.8417 41.3627,40.5757 C41.6997,41.7767 40.3917,43.0717 40.5737,44.1367 C41.1677,43.9407 41.3287,43.3137 41.6327,42.8147 C41.6187,45.3907 40.0347,46.5507 38.9347,48.4867 C40.4657,48.0417 40.8097,47.4007 41.8887,46.5037" fill="#FFFFFF"/>
            <path d="M40.4438,11.1951 C40.4038,11.5011 40.4648,11.7021 40.5748,11.8541 C40.8988,11.7361 41.3348,11.7351 41.3638,11.3261 C41.3068,11.0341 40.7168,11.2761 40.4438,11.1951" fill="#FFFFFF"/>
            <path d="M7.6853,42.6617 C7.5733,42.7857 7.4553,42.9197 7.3333,43.0577 L7.3333,44.1567 C7.6773,43.5357 7.7753,42.9457 7.6853,42.6617" fill="#FFFFFF"/>
            <path d="M42.1565,11.5925 C41.6045,11.5665 41.7285,12.2165 41.4975,12.5135 C41.9915,12.4845 42.2055,12.1705 42.1565,11.5925" fill="#FFFFFF"/>
            <path d="M45.5715,8.8254 C46.5575,9.5454 46.2875,12.0794 45.4425,12.7794 C45.4505,11.6274 44.8555,11.0864 44.3935,10.4084 C45.2575,10.3514 45.4295,9.6044 45.5715,8.8254" fill="#FFFFFF"/>
            <path d="M42.1566,11.5924 C42.2056,12.1704 41.9906,12.4844 41.4976,12.5134 C41.7276,12.2164 41.6046,11.5664 42.1566,11.5924" fill="#FFFFFF"/>
            <path d="M40.4439,11.1949 C40.7179,11.2779 41.3069,11.0339 41.3649,11.3269 C41.3339,11.7359 40.8999,11.7369 40.5779,11.8539 C40.4649,11.7019 40.4029,11.5019 40.4439,11.1949" fill="#FFFFFF"/>
            <path d="M35.444,20.0267 C36.375,20.1057 36.568,22.2387 35.575,22.3937 C35.637,21.4987 35.514,20.7927 35.444,20.0267" fill="#FFFFFF"/>
            <path d="M22.3646,10.6705 C22.3986,11.1005 22.2096,11.3035 21.8406,11.3265 C21.7856,11.0775 21.5566,11.0005 21.5776,10.6705 L22.3646,10.6705 Z" fill="#FFFFFF"/>
            <path d="M20.7867,11.0644 C20.8947,11.4374 20.5997,11.4074 20.6557,11.7234 C20.4247,11.6054 20.3637,11.3114 20.3917,10.9334 C20.6047,10.8964 20.6197,11.0594 20.7867,11.0644" fill="#FFFFFF"/>
            <path d="M9.7916,6.7167 C10.0056,6.6807 10.0196,6.8437 10.1896,6.8477 C9.7146,8.1767 8.7566,9.0177 7.8176,9.8807 C7.2716,8.1427 9.2776,7.8257 9.7916,6.7167" fill="#FFFFFF"/>
            <path d="M7.6853,42.6628 C7.8033,43.0348 7.6013,43.9308 6.9413,44.7388 C6.4823,45.3008 5.3493,46.5098 3.9253,48.5448 C4.0983,46.8568 6.3193,44.1768 7.6853,42.6628" fill="#FFFFFF"/>
            <path d="M6.2384,19.4977 C6.3184,21.2277 7.1634,22.8677 7.0244,24.3677 C6.1514,24.4587 6.1434,23.6787 5.7144,23.3147 C5.4124,23.2837 5.2224,23.3477 5.1884,23.5827 C4.5624,22.9887 4.3884,22.0857 4.0044,21.0807 C2.8884,18.1517 0.4664,15.4247 0.8474,11.5927 C1.0674,9.3577 3.3664,7.6567 5.5824,9.4837 C5.6054,9.7717 5.1134,9.5457 4.9274,9.6147 C4.7844,10.1097 5.2504,9.9917 5.1884,10.4087 C4.0194,9.9817 1.8444,9.3537 1.5054,10.9337 C2.5354,12.0967 1.5134,15.3127 2.8184,16.2027 C3.0894,14.5627 3.1434,12.0967 4.6644,11.3257 C4.2534,12.4517 4.2164,13.3767 3.4764,13.9637 C4.5464,14.7947 4.9024,12.9187 5.8434,12.7787 C6.2814,12.8227 6.0514,13.5377 6.1084,13.9637 C4.1774,13.9157 3.6674,16.8057 4.5324,18.3087 C5.2094,18.5997 5.4854,19.2897 6.2384,19.4977 M5.9204,21.4717 C5.3544,20.7167 4.5414,19.5307 3.8164,19.3657 C4.2164,20.1517 4.5504,21.0027 4.8694,21.8687 C5.3824,21.8997 5.5524,21.5867 5.9204,21.4717" fill="#FFFFFF"/>
            <path d="M6.8829,40.0705 C7.1459,42.3565 4.4969,43.8055 3.6839,45.8905 C3.6109,43.5345 5.5279,41.8725 6.8829,40.0705" fill="#FFFFFF"/>
            <path d="M6.7657,6.191 C7.3827,7.218 4.7527,7.234 3.8727,7.638 C4.5017,6.819 5.8557,6.73 6.7657,6.191" fill="#FFFFFF"/>
            <path d="M6.7076,1.6766 C6.5986,2.0906 6.2706,2.1406 5.9196,2.4646 C6.0886,2.3086 4.9056,2.1626 4.2116,2.2016 C4.5206,1.2076 5.8946,2.0556 6.7076,1.6766" fill="#FFFFFF"/>
            <path d="M6.2384,37.6786 C6.3104,38.9976 4.8194,40.8116 3.7034,42.3306 C3.8894,40.3766 5.0784,39.4186 6.2384,37.6786" fill="#FFFFFF"/>
            <path d="M5.9785,34.7799 C6.0355,35.9819 5.0735,37.2989 4.5325,38.3369 C4.4045,37.0719 5.5375,35.9199 5.9785,34.7799" fill="#FFFFFF"/>
            <path d="M2.1606,2.6337 C3.4456,2.7957 3.7376,3.9567 5.3226,3.8177 C5.0326,4.9077 2.7706,4.6767 1.6336,4.4777 C1.8176,3.9627 2.8816,4.3207 3.4766,4.2157 C3.0396,3.6847 2.1696,3.5917 2.1606,2.6337" fill="#FFFFFF"/>
            <g transform="translate(7, 0)">
                <path d="M22.0758,9.8788 C22.2038,10.4518 22.8918,10.4718 22.9998,11.0658 C21.6168,12.3608 21.0108,15.5508 17.9958,14.3568 C18.1648,13.8238 18.6768,13.6348 18.7848,13.0418 C18.7038,12.1178 17.7598,12.6368 17.2068,12.3808 C17.1458,11.7398 17.7668,11.8008 17.7328,11.1938 C17.5438,10.8028 17.4428,11.0858 16.9508,10.9378 C16.6678,11.3558 16.5798,11.9758 16.2898,12.3808 L13.3898,12.3808 C13.1468,12.0638 12.8908,11.7398 12.7358,11.3288 C12.1288,11.4168 11.9938,11.7738 12.2098,12.3808 C11.3198,12.4008 11.0428,12.1988 10.6318,12.6438 C10.9488,11.4708 12.2368,11.2678 12.7358,10.2698 C11.2588,10.4248 10.7468,11.5308 9.5798,11.9898 C10.5578,9.8518 12.9718,9.1508 16.1548,9.2248 C15.2308,7.5588 12.8978,8.1258 10.8948,8.0378 C10.7868,7.6598 11.0768,7.6938 11.0298,7.3768 C9.8088,7.2078 9.4178,7.8758 8.5278,8.0378 C8.6898,7.0738 9.7618,6.7428 10.3688,6.4528 C13.0258,5.1918 15.5478,6.1838 17.8678,7.2418 C19.8438,8.1528 21.2798,9.1308 22.8648,7.7748 C22.8578,7.9638 22.8448,8.1458 22.9998,8.1658 C23.6128,8.1658 23.8158,7.2828 24.3148,7.9028 C23.8768,8.8738 22.7968,9.1978 22.0758,9.8788 M24.4428,26.0908 C24.0918,26.9338 23.3228,26.1378 22.9998,25.8208 C23.4988,25.3688 23.9098,26.1308 24.4428,26.0908 M23.2628,28.1878 C22.9858,27.7358 22.1498,27.2438 22.6018,26.4748 C23.3438,26.8728 23.8288,27.5338 24.5708,27.9318 C24.5108,28.3898 23.7148,28.1278 23.2628,28.1878 M19.7018,23.3118 C18.9468,22.8878 18.8588,21.7948 18.7848,20.6818 C17.2808,21.4578 16.2488,22.7118 14.4488,23.1838 C15.5138,21.1808 17.6388,20.2368 19.8368,19.3668 C19.2368,20.5268 19.2438,21.9228 20.0998,22.7928 C20.8008,21.9978 23.0268,21.8018 23.2628,23.1838 C21.9948,23.2038 21.0238,22.5098 19.7018,23.3118 M13.6528,14.6198 C14.4288,14.5858 15.8788,14.6538 16.8088,14.3908 L16.9438,14.4108 C16.9298,15.5708 15.7098,15.5168 14.7118,15.6718 C14.6168,15.3208 14.9818,15.4218 15.1028,15.2808 C14.7388,14.9438 13.8008,15.1798 13.6528,14.6198 M12.9988,26.0908 C13.5318,24.1618 15.7638,23.2318 17.0788,22.5298 C16.2428,24.2358 14.3478,24.8968 12.9988,26.0908 M37.2558,1.9688 C37.8688,1.8878 38.1058,2.1778 38.5708,2.2378 C38.5568,1.8198 38.4428,1.4558 38.2608,1.1388 C38.1998,1.0378 38.1328,0.9368 38.0518,0.8428 L4.5148,0.8428 C4.4748,0.9438 4.4408,1.0448 4.4068,1.1458 C4.1918,1.7868 4.0098,2.4678 3.9758,3.2968 C3.5308,3.8098 2.7218,3.9718 2.7888,5.0028 C3.8338,5.1308 4.2388,3.9108 4.7648,3.9518 C4.8458,8.1318 3.6788,9.6088 2.9438,11.6728 C2.9378,11.6728 2.8298,11.7808 2.6538,11.9628 C2.5798,12.0438 2.4918,12.1378 2.3978,12.2458 C2.3978,12.2528 2.3908,12.2528 2.3908,12.2598 C2.3098,12.3538 2.2228,12.4618 2.1278,12.5698 C2.1078,12.5968 2.0878,12.6168 2.0738,12.6438 C1.9798,12.7588 1.8788,12.8868 1.7838,13.0218 C1.7638,13.0478 1.7438,13.0758 1.7228,13.1088 C1.6428,13.2238 1.5618,13.3448 1.4808,13.4668 C1.4608,13.4998 1.4328,13.5338 1.4128,13.5678 C1.3188,13.7158 1.2308,13.8648 1.1498,14.0198 L1.0898,14.1408 C1.0148,14.2828 0.9478,14.4308 0.8868,14.5728 C0.8738,14.5998 0.8598,14.6268 0.8538,14.6538 C0.7858,14.8218 0.7258,14.9908 0.6778,15.1588 C0.6718,15.1998 0.6578,15.2398 0.6508,15.2808 C0.6038,15.4558 0.5698,15.6308 0.5568,15.8068 C0.9878,15.6578 1.2648,15.4428 1.4938,15.1998 C1.8648,14.7948 2.0878,14.2958 2.6608,13.8308 C2.6198,13.9388 2.5998,14.0528 2.5798,14.1678 C2.4788,14.9028 2.7218,15.8948 2.7888,16.5958 C2.5258,16.8648 2.2768,17.1418 2.0468,17.4448 C1.5138,18.1398 1.0958,18.9428 0.9478,20.0278 C1.3658,19.5968 1.8178,18.8748 2.2828,18.4298 C2.4918,18.2278 2.7078,18.0788 2.9238,18.0458 C2.8898,18.4638 2.8828,18.8678 2.9038,19.2658 C3.0048,22.0518 4.1778,24.3978 5.1558,26.4748 C4.9328,26.6168 4.7108,26.6838 4.4878,26.7038 C3.5108,26.7918 2.5398,25.9488 1.7368,25.6928 C1.9188,27.0478 3.4498,27.7568 3.7128,28.5928 L3.7058,28.5928 C3.1128,28.5388 2.7818,28.2148 2.4318,27.9178 C2.2628,27.7698 2.0878,27.6348 1.8718,27.5338 C1.6158,29.6038 3.4028,30.2848 3.5778,31.4858 C3.0178,31.3438 2.1818,30.2378 1.8988,30.5478 C1.8918,30.5618 1.8788,30.5548 1.8718,30.5688 C1.9118,30.7238 1.9588,30.8788 2.0138,31.0338 C2.0398,31.0878 2.0608,31.1488 2.0878,31.2088 C2.1208,31.2968 2.1618,31.3838 2.2018,31.4788 C2.2358,31.5528 2.2768,31.6338 2.3168,31.7148 C2.3438,31.7758 2.3708,31.8298 2.4048,31.8838 C2.4588,31.9848 2.5058,32.0858 2.5658,32.1798 C2.9778,32.8948 3.4498,33.5288 3.7128,33.9878 C2.9098,34.0418 2.5868,32.9288 2.0068,33.1988 C3.8208,38.0338 10.0048,42.8288 14.5028,45.9778 C15.7638,46.8608 17.2338,48.0348 18.7238,48.6418 L24.4028,48.6418 C25.3398,48.2368 25.7578,47.5218 24.8948,46.3758 C19.5868,46.7198 15.1908,44.3528 11.6098,42.0258 C8.6968,40.1378 6.0398,37.8918 4.7648,35.7008 C7.6648,37.2788 9.7278,39.6928 12.9248,40.9738 C12.7828,40.2318 11.3938,39.5578 11.3398,38.7288 C11.7648,39.0858 12.4798,39.6998 13.0528,39.1258 C16.4308,41.9788 25.2178,45.0268 28.4418,39.7868 C28.5298,39.3018 28.2728,38.4718 28.5768,38.2018 C28.9878,38.6268 29.5008,38.9438 29.5008,39.7868 C30.2758,39.3828 30.2158,37.5888 30.2898,36.8868 C31.2668,36.8268 31.2068,37.8108 31.8678,38.0738 C32.0698,37.6158 31.9818,36.8738 32.0028,36.2268 C32.4608,36.2058 32.4268,36.6718 32.7848,36.7588 C35.2128,33.1918 37.5258,28.8888 36.8648,22.6578 C37.2558,22.7188 37.7478,23.8988 37.9168,23.3118 C38.0718,21.4038 37.1818,20.5408 36.8648,19.0978 C37.1548,19.2528 37.4038,19.4418 37.9168,19.3668 C37.7818,18.3148 37.1278,17.7888 36.6018,17.1218 C37.0398,16.7708 37.9978,16.9398 38.3078,16.4678 C38.4558,15.5778 38.0718,15.2128 37.5188,15.0178 C36.7768,15.3548 34.6858,16.2048 33.9718,15.2808 C34.4498,14.8418 35.7928,14.8148 35.6168,14.3768 C35.1648,14.6468 34.5448,14.3698 34.9628,14.2488 C36.2578,13.8648 36.7908,12.7718 37.6538,13.0348 C37.1888,12.8938 37.4448,12.1918 37.1278,11.9898 C37.1008,12.3948 36.6758,12.4888 36.3518,12.6038 C36.3998,12.1108 36.2308,11.7338 35.8128,11.7198 C35.7118,12.3678 35.4688,12.8728 35.0238,13.1698 C34.1608,13.4188 33.6078,13.1898 32.5288,13.3248 C32.3198,13.3518 32.1368,12.6848 32.0028,12.3808 C31.5838,12.7588 30.7748,12.7378 30.8158,13.5678 C31.2468,14.0598 31.9348,14.2888 32.6568,14.4918 C32.4538,14.8628 31.9278,14.9028 32.1238,15.6718 C31.4968,16.0158 30.5118,15.9888 29.7638,16.2048 C29.7838,16.3188 29.8238,16.4408 29.8718,16.5548 C29.8718,16.5618 29.8778,16.5748 29.8848,16.5818 C30.2158,17.3778 30.9568,18.0658 30.6808,18.9698 C30.5528,18.9898 30.4518,18.9628 30.3568,18.9218 C30.0808,18.8008 29.9258,18.4978 29.7228,18.3958 C29.7098,18.3898 29.6958,18.3828 29.6888,18.3828 C29.6558,18.3688 29.6148,18.3628 29.5818,18.3688 C29.5678,18.3688 29.5548,18.3628 29.5408,18.3688 C29.4868,18.3758 29.4328,18.3958 29.3728,18.4438 C29.4328,18.6258 29.5138,18.8078 29.6018,18.9758 C29.6218,19.0238 29.6488,19.0708 29.6758,19.1178 C29.7438,19.2388 29.8178,19.3668 29.8988,19.4818 C29.9318,19.5358 29.9588,19.5828 29.9998,19.6368 C30.0868,19.7648 30.1818,19.8928 30.2828,20.0148 C30.3098,20.0418 30.3298,20.0748 30.3498,20.1018 C32.1578,22.2538 35.3878,23.6768 35.6848,26.7448 C35.7858,27.8578 35.4418,29.5908 34.4978,30.0358 C34.4768,29.8808 34.5178,29.6648 34.3628,29.6378 C34.0998,30.6428 33.6888,31.5128 32.7848,31.8838 C32.3398,30.8248 33.8368,27.0748 31.3418,27.6688 C31.6918,29.0718 32.2318,30.7578 31.0718,31.7488 C30.7548,31.7958 30.5798,31.6948 30.3568,31.6338 L30.3568,31.6408 C30.3028,31.6208 30.2428,31.6138 30.1818,31.6068 C30.0938,31.5998 30.0068,31.5938 29.8918,31.6138 C29.7638,31.7888 29.6558,31.9908 29.5548,32.1938 C29.3858,32.5508 29.2438,32.9418 29.1028,33.3268 C28.1178,34.1018 26.7628,35.5588 25.0228,35.7008 C24.5978,35.7338 23.1408,36.0308 23.1818,35.0398 C23.6938,34.6478 24.8408,35.4978 25.0228,34.6478 C23.5388,34.2508 20.9628,34.9378 20.2888,33.7318 C20.9028,33.4478 21.4488,34.0748 22.0018,33.5968 C21.4488,32.8278 20.3428,32.6248 19.4588,32.1938 L19.4528,32.1938 C19.3448,32.1398 19.2368,32.0788 19.1358,32.0118 C19.1148,32.0048 19.1018,31.9908 19.0818,31.9848 C18.9808,31.9168 18.8798,31.8428 18.7848,31.7548 C18.7778,31.7548 18.7718,31.7488 18.7648,31.7418 C18.6838,31.6678 18.6158,31.5868 18.5488,31.4988 C18.5288,31.4718 18.5148,31.4448 18.4948,31.4248 C18.4278,31.3238 18.3668,31.2158 18.3198,31.0948 C18.3738,31.1008 18.4278,31.1148 18.4878,31.1278 C20.8958,31.5598 23.4038,32.3958 26.2638,32.0788 C26.4658,32.0588 26.6618,32.0518 26.8638,32.0118 C26.9448,31.4588 26.0008,31.9168 26.0748,31.3578 C26.4118,31.0748 27.2148,31.2628 27.5448,30.9798 C27.5918,30.9398 27.6328,30.8858 27.6528,30.8248 C25.4068,31.1958 23.5998,30.5888 22.0418,30.3458 C21.9408,30.3328 21.8328,30.3118 21.7318,30.2988 C21.1988,30.2318 20.5318,30.3528 19.9308,30.2988 L19.8978,30.2988 C18.2118,30.1238 16.7888,29.5168 15.6358,29.4288 C14.9408,29.3748 14.3408,29.5098 13.8418,30.0358 C13.4908,30.3458 14.1928,30.3868 13.8418,30.6898 C13.4778,30.8178 13.2008,30.8518 12.9858,30.8178 C12.0408,30.6828 12.2368,29.3138 11.6028,28.5928 C12.4928,28.6398 13.2688,27.6888 14.1048,27.7968 C14.1048,27.9048 14.0578,27.9988 13.9838,28.0938 C13.7878,28.3568 13.4028,28.5858 13.3628,28.8078 C13.3498,28.9028 13.3968,28.9908 13.5378,29.0848 C13.5518,29.0978 13.5588,29.1048 13.5788,29.1188 C13.5988,29.1048 13.6188,29.0978 13.6458,29.0918 C14.0508,28.9228 14.3068,28.6058 14.7728,28.4908 C14.7788,28.4908 14.7858,28.4908 14.7928,28.4848 C14.8268,28.4778 14.8598,28.4778 14.8938,28.4708 C14.9338,28.4648 14.9748,28.4578 15.0288,28.4578 C17.2738,28.8288 19.7698,28.9498 22.1838,29.0448 C24.5978,29.1458 26.9448,29.2198 28.8998,29.4828 C28.9678,29.4958 29.0348,29.5028 29.1028,29.5098 C29.1228,29.4898 29.1298,29.4688 29.1368,29.4418 C29.1498,29.4218 29.1768,29.3948 29.1768,29.3678 C29.1968,29.2538 29.1298,29.1318 29.0558,29.0038 C28.9678,28.8558 28.8668,28.7068 28.8458,28.5458 C28.8258,28.4308 28.8528,28.3088 28.9678,28.1878 C29.4738,27.9658 29.8378,28.9428 29.8918,28.3228 C29.8578,28.1948 29.8108,28.0798 29.7568,27.9788 C29.3788,27.2438 28.5158,26.9938 28.0508,26.3468 C28.0038,26.1918 28.0438,26.1108 28.1118,26.0638 C28.1588,26.0228 28.2188,26.0028 28.2798,25.9828 C28.3538,25.9488 28.4278,25.9088 28.4418,25.8138 C28.3338,25.6248 28.1858,25.4638 28.0168,25.3348 C26.8768,24.4518 24.5848,24.7288 23.7078,23.5818 C25.9738,23.1708 27.8548,22.5838 27.5248,19.7578 C27.3828,18.5848 27.0598,17.5258 27.1268,15.9408 C27.1338,15.9008 27.1338,15.8678 27.1338,15.8338 C27.1398,15.6248 27.1468,15.4218 27.1468,15.2128 C27.1468,13.4598 26.8768,11.7608 26.6008,10.7958 C27.2148,10.0948 27.4508,9.0088 28.0508,8.3008 C28.8058,8.5298 28.4488,9.5548 28.8398,9.8788 C31.0378,9.4408 32.3938,8.0378 34.3628,7.7678 C36.5338,7.4778 38.4828,7.8688 38.5708,5.7988 C38.7458,5.7988 38.7598,5.9608 38.9688,5.9268 C39.1438,3.8638 37.9028,3.2158 37.2558,1.9688" fill="#FFFFFF" mask="url(#mask-2)"/>
            </g>
            <path d="M21.841,11.3268 C22.21,11.3048 22.399,11.1008 22.365,10.6708 L21.578,10.6708 C21.557,11.0008 21.786,11.0788 21.841,11.3268" fill="#FFFFFF"/>
            <path d="M20.393,10.9351 C20.365,11.3121 20.424,11.6051 20.655,11.7241 C20.601,11.4081 20.896,11.4371 20.787,11.0661 C20.619,11.0601 20.604,10.8961 20.393,10.9351" fill="#FFFFFF"/>
        </g>
    </g>
</svg>